<!DOCTYPE svg PUBLIC "-//W3C//DTD SVG 1.1//EN" "http://www.w3.org/Graphics/SVG/1.1/DTD/svg11.dtd">
<!-- Uploaded to: SVG Repo, www.svgrepo.com, Transformed by: SVG Repo Mixer Tools -->
<svg width="800px" height="800px" viewBox="0 0 512 512" version="1.1" xml:space="preserve" xmlns="http://www.w3.org/2000/svg" xmlns:xlink="http://www.w3.org/1999/xlink" fill="#e1be58">
<g id="SVGRepo_bgCarrier" stroke-width="0"/>
<g id="SVGRepo_tracerCarrier" stroke-linecap="round" stroke-linejoin="round"/>
<g id="SVGRepo_iconCarrier"> <style type="text/css"> .st0{display:none;} .st1{fill:#e1be58;} </style> <g class="st0" id="Layer_1"/> <g id="Layer_2"> <g> <path class="st1" d="M104.33,391.01c1.74,0,3.47-0.64,4.83-1.93c2.8-2.67,2.91-7.1,0.24-9.9c-33.92-35.6-52.61-82.21-52.61-131.27 c0-43.22,14.17-83.98,40.99-117.88c2.2-2.79,1.97-6.78-0.54-9.29l-9.27-9.27l59.58-15.97l-15.97,59.58l-6.22-6.22 c-1.44-1.44-3.45-2.19-5.46-2.03c-2.03,0.15-3.89,1.17-5.11,2.81C93.53,178.21,82.3,212.2,82.3,247.91 c0,41.49,15.47,81.14,43.56,111.65c2.62,2.84,7.05,3.03,9.89,0.41c2.84-2.62,3.03-7.05,0.41-9.89 c-25.7-27.92-39.86-64.2-39.86-102.17c0-29.95,8.63-58.57,25.03-83.27l8.91,8.91c1.77,1.77,4.35,2.46,6.76,1.81 c2.42-0.65,4.3-2.53,4.95-4.95l22.25-83.01c0.65-2.42-0.04-4.99-1.81-6.76c-1.77-1.77-4.35-2.46-6.76-1.81l-83.01,22.25 c-2.42,0.65-4.3,2.53-4.95,4.95s0.04,4.99,1.81,6.76L83,126.3c-26.33,35.38-40.21,77.29-40.21,121.61 c0,52.66,20.05,102.71,56.47,140.92C100.63,390.28,102.48,391.01,104.33,391.01z"/> <path class="st1" d="M468.27,187.97c-1.25-2.17-3.56-3.5-6.06-3.5h-20.68c-0.74-2.26-1.52-4.53-2.34-6.77 c-14.28-38.92-39.77-72.27-73.72-96.43C330.75,56.56,289.85,43.5,247.2,43.5c-25.25,0-49.92,4.57-73.32,13.59 c-3.61,1.39-5.4,5.44-4.01,9.05c1.39,3.61,5.44,5.4,9.05,4.01c21.78-8.4,44.75-12.66,68.28-12.66 c79.55,0,151.42,50.24,178.85,125.03c1.33,3.62,2.55,7.3,3.62,10.93c0.88,2.97,3.61,5.02,6.71,5.02h13.71l-30.84,53.42 l-16.51-28.59c-0.04-0.08-0.09-0.16-0.13-0.24l-14.2-24.59h6.29c2.3,0,4.46-1.13,5.76-3.03s1.6-4.31,0.78-6.46 c-1.52-3.99-3.23-7.99-5.09-11.88c-13.21-27.74-33.87-51.22-59.76-67.9c-26.59-17.13-57.43-26.19-89.2-26.19 c-20.28,0-40.08,3.64-58.86,10.82c-3.61,1.38-5.42,5.43-4.04,9.04c1.38,3.61,5.43,5.42,9.04,4.04c17.18-6.57,35.3-9.89,53.86-9.89 c57.91,0,111.42,33.8,136.33,86.12c0.21,0.45,0.42,0.89,0.63,1.34h-7.87c-2.5,0-4.81,1.33-6.06,3.5c-1.25,2.17-1.25,4.83,0,7 l20.13,34.87c0.04,0.08,0.09,0.16,0.13,0.24l22.7,39.32c1.25,2.17,3.56,3.5,6.06,3.5s4.81-1.33,6.06-3.5l42.96-74.42 C469.52,192.8,469.52,190.14,468.27,187.97z"/> <path class="st1" d="M138.18,388.89c-1.03,2.28-0.76,4.93,0.7,6.96l50.23,69.73c1.32,1.84,3.44,2.91,5.68,2.91 c0.23,0,0.47-0.01,0.7-0.04c2.49-0.25,4.65-1.81,5.68-4.09l7.1-15.77c12.75,2.47,25.82,3.72,38.93,3.72 c47.05,0,93.01-16.44,129.42-46.3c35.9-29.44,60.95-70.49,70.54-115.57c0.8-3.78-1.61-7.5-5.39-8.3c-3.77-0.8-7.5,1.61-8.3,5.39 c-18.57,87.37-96.9,150.78-186.26,150.78c-14.01,0-27.97-1.53-41.47-4.55c-3.25-0.73-6.55,0.93-7.91,3.96l-4.43,9.84l-36.06-50.06 l61.38-6.19l-4.25,9.43c-0.89,1.98-0.81,4.26,0.21,6.17c1.02,1.91,2.88,3.25,5.02,3.6c9.01,1.51,18.27,2.28,27.51,2.28 c75.29,0,140.97-50.86,159.7-123.69c0.96-3.74-1.29-7.56-5.04-8.52s-7.56,1.29-8.52,5.04C376.2,352.27,316.1,398.81,247.2,398.81 c-5.39,0-10.79-0.28-16.13-0.85l5.38-11.95c1.03-2.28,0.76-4.93-0.7-6.96c-1.46-2.03-3.89-3.12-6.38-2.87l-85.5,8.63 C141.37,385.05,139.21,386.61,138.18,388.89z"/> <path class="st1" d="M297.09,183.71c-0.02-0.05-0.05-0.1-0.07-0.14c-0.59-1.23-1.2-2.45-1.82-3.66 c-10.44-20.17-25.65-37.96-43.99-51.44c-0.02-0.02-0.05-0.03-0.07-0.04c-0.27-0.19-0.55-0.37-0.85-0.52 c-0.04-0.02-0.08-0.04-0.13-0.06c-0.29-0.14-0.59-0.27-0.9-0.37c-0.02-0.01-0.04-0.02-0.06-0.02c-0.31-0.1-0.63-0.17-0.96-0.23 c-0.07-0.01-0.13-0.02-0.2-0.03c-0.32-0.05-0.65-0.08-0.98-0.08s-0.66,0.03-0.98,0.08c-0.07,0.01-0.13,0.02-0.2,0.03 c-0.33,0.06-0.65,0.13-0.96,0.23c-0.02,0.01-0.04,0.02-0.06,0.02c-0.31,0.1-0.61,0.23-0.9,0.37c-0.04,0.02-0.09,0.04-0.13,0.06 c-0.3,0.15-0.58,0.33-0.85,0.52c-0.02,0.02-0.05,0.03-0.07,0.04c-18.34,13.48-33.56,31.27-43.99,51.44 c-10.79,20.85-16.49,44.37-16.49,68c0,8.04,0.65,16.12,1.93,24c0.62,3.82,4.21,6.4,8.04,5.78c3.82-0.62,6.4-4.22,5.78-8.04 c-1.16-7.14-1.75-14.46-1.75-21.75c0-7.46,0.64-14.86,1.86-22.13l41.77,47.04v36.84c0,0,0,0.01,0,0.01v37.23 c-11.61-10.64-21.38-23.31-28.62-37.25c-1.78-3.43-6.01-4.77-9.44-2.99c-3.43,1.78-4.77,6.01-2.99,9.44 c10.43,20.09,25.61,37.81,43.89,51.25c0.02,0.02,0.05,0.03,0.07,0.04c0.27,0.19,0.55,0.37,0.85,0.52 c0.04,0.02,0.08,0.04,0.13,0.06c0.29,0.14,0.59,0.27,0.9,0.37c0.02,0.01,0.04,0.02,0.06,0.02c0.31,0.1,0.63,0.17,0.96,0.23 c0.07,0.01,0.13,0.02,0.2,0.03c0.32,0.05,0.65,0.08,0.98,0.08s0.66-0.03,0.98-0.08c0.07-0.01,0.13-0.02,0.2-0.03 c0.33-0.06,0.65-0.13,0.96-0.23c0.02-0.01,0.04-0.02,0.06-0.02c0.31-0.1,0.61-0.23,0.9-0.37c0.04-0.02,0.09-0.04,0.13-0.06 c0.3-0.15,0.58-0.33,0.85-0.52c0.02-0.02,0.05-0.03,0.07-0.04c18.34-13.48,33.56-31.27,43.99-51.44 c9.84-19.01,15.43-40.24,16.34-61.75c0.53-1.44,0.57-3.02,0.12-4.48c0.01-0.59,0.03-1.18,0.03-1.77 C311.69,225.7,306.65,203.6,297.09,183.71z M254.06,233.55l34.39-34.39c6.02,15.38,9.24,31.9,9.24,48.75 c0,0.41-0.01,0.83-0.02,1.24l-43.61,43.61V233.55z M282.24,185.57l-28.18,28.18v-64.82C265.56,159.48,275.07,171.92,282.24,185.57 z M202.21,209.12c6.97-22.93,20-43.82,37.84-60.19v81.71c0,0,0,0.01,0,0.01v21.08L202.21,209.12z M254.06,346.89v-34.32 l41.61-41.61C290.56,300.02,275.91,326.85,254.06,346.89z"/> <path class="st1" d="M201.85,294.59c0.25-0.38,0.46-0.79,0.64-1.21c0.17-0.42,0.31-0.86,0.4-1.31c0.09-0.45,0.14-0.91,0.14-1.37 c0-0.45-0.05-0.91-0.14-1.37c-0.09-0.44-0.23-0.88-0.4-1.3c-0.18-0.43-0.39-0.83-0.64-1.21c-0.26-0.39-0.55-0.75-0.87-1.07 c-1.63-1.62-4.05-2.37-6.32-1.91c-0.45,0.09-0.89,0.22-1.31,0.4c-0.43,0.17-0.83,0.39-1.21,0.64c-0.38,0.26-0.74,0.55-1.06,0.87 c-0.33,0.32-0.62,0.68-0.88,1.07c-0.25,0.38-0.46,0.78-0.64,1.21c-0.17,0.42-0.31,0.86-0.4,1.3c-0.09,0.46-0.14,0.92-0.14,1.37 c0,0.46,0.05,0.92,0.14,1.37c0.09,0.45,0.23,0.89,0.4,1.31c0.18,0.42,0.39,0.83,0.64,1.21c0.26,0.38,0.55,0.74,0.88,1.06 c0.32,0.33,0.68,0.62,1.06,0.87s0.78,0.47,1.21,0.65c0.42,0.17,0.86,0.31,1.31,0.4c0.45,0.09,0.91,0.13,1.37,0.13 c1.84,0,3.64-0.74,4.95-2.05C201.3,295.33,201.59,294.97,201.85,294.59z"/> </g> </g> </g>
</svg>